<svg xmlns="http://www.w3.org/2000/svg" viewBox="0 0 67 83.8"><path d="M6 66h55c1-7 0-17-4-22l-8-5v-3l-6-6 1-3 2-2 1-4a3 3 0 00-1-2c2-7-2-13-3-13-5-5-11-4-11-4-10 2-13 9-11 17l-1 2 1 4 2 2 2 6v3l-15 8s-5 5-4 21v1zm53-2h-9v-4l6-14c3 5 3 14 3 18zM47 38c0 4-3 2-4 5l-1-4-1-6 1-1c3 2 5 5 5 6zm-20-4a10 10 0 0012 1l1 4v1l-6 7-8-9 1-1v-3zm-2-8V15l4-4 13 10v5a8 8 0 01-17 0zm-1 13l10 11 6-7 1 1-7 9-11-14h1zm20-15v-3l1-1-1 4zM32 4s6-1 10 3c0 1 4 5 2 10l-2-6-2 1 3 7C37 13 29 9 29 9s-4 1-6 5v4c-2-7 1-13 9-14zM22 20l1 2v2l-1-3v-1zm-1 20l13 16 8-11 3 2v-2l1-2 2-2 7 4-7 14v5H19v-5l-7-14 9-5zm-10 6l6 14v4H8c0-4 0-13 3-18z" fill="#ff6b08"/></svg>