<svg xmlns="http://www.w3.org/2000/svg" viewBox="206 206 100 125" width="42" height="45"><path d="M299 224l-14-14h-62l-1 1v84h1v1l6 6h1l6-6 5 6a1 1 0 001 0l6-6 6 6h1l6-6 5 6h1l6-6 6 6a1 1 0 001 0l5-6 6 6h1l7-6v-72zm-14-11l11 11h-11v-11zm12 82l-5 5-6-6h-1l-6 6-5-6h-2l-5 6-6-6a1 1 0 00-1 0l-6 6-5-6h-1l-6 6-6-6h-1l-6 6-5-5v-83h59v13h14v70z" fill="ff6b08"/><path d="M230 219h27a1 1 0 000-1h-27a1 1 0 100 1zm0 5h43a1 1 0 000-1h-43a1 1 0 100 1zm-1 5v26l1 1h61l1-1v-26l-1-1h-61l-1 1zm18 1h43v7h-43v-7zm0 8h43v7h-43v-7zm0 9h43v8h-43v-8zm-16-17h15v7h-15v-7zm0 8h15v7h-15v-7zm0 9h15v8h-15v-8zm60 13h-61l-1 1v26a1 1 0 102 0v-8h15v8a1 1 0 001 0v-8h43v8a1 1 0 002 0v-26l-1-1zm-45 17h-15v-7h15v7zm0-9h-15v-7h15v7zm44 9h-43v-7h43v7zm0-9h-43v-7h43v7zm-71-58l-1 1v84a1 1 0 001 0v-85zm-5 0l-1 1v84a1 1 0 002 0v-84l-1-1z" fill="ff6b08"/>&gt;</svg>