<svg xmlns="http://www.w3.org/2000/svg" viewBox="0 0 67 83.8" width="45"><path d="M5 27v6a22 22 0 0019 4 24 24 0 0019 0c7 2 13 0 19-4v-6l-1-3-8-4c2-2 3-5 3-8a8 8 0 00-14-7v1h-1a9 9 0 00-8-5h-1c-3 1-5 3-6 5-2-2-4-3-7-3-8 0-11 9-5 17l-8 5-1 2zm38 8a22 22 0 01-23-2v-6l9-5 5 1 4-1 9 5v6l-4 2zm17-9v6c-4 3-9 4-14 4l3-2v-7l-1-2-5-3h1l4 1 4-1 8 4zM48 5c3 0 5 2 6 4l-5-2h-1l-5 4V9l-1-1c1-2 4-3 6-3zm-6 8l7-4 5 2c0 4-3 10-6 10s-5-4-6-6v-2zm1 7l-2 1-2-1 2-3 2 3zm-3-6c-1 3-3 7-6 7-4 0-7-5-8-9 1 0 5 0 9-4l6 2-1 4zM34 3c5 0 6 5 6 5l-5-2a1 1 0 00-1 0 8 8 0 01-8 4c1-4 4-7 8-7zm-8 14l2 3-2 1-2-1 2-3zM19 5c2 0 5 1 6 3l-1 1-3-2a1 1 0 00-2 0c-1 2-4 4-6 4 0-4 3-6 6-6zm-6 8c3 0 5-2 7-4l4 2 1 4-3 5-3 1c-3 0-6-5-6-8zM7 27v-1l8-4h1l3 1 4-1h1l-5 3-1 2v7l3 2c-5 0-10-1-14-4v-5z" fill="#ff6b08"/><path d="M64 43h-4l-12 6c0-2-2-4-5-4h-7c-3-3-8-5-12-5h-9v-2H1v23h14v-3a58 58 0 0019 8c9-1 29-15 30-16a4 4 0 000-7zM13 59H3V40h10v19zm50-10a102 102 0 01-29 15c-4 0-15-6-19-8V42h9c4 0 8 2 11 4l1 1h7a2 2 0 010 4H29v2h14l4-1 14-7h2l1 2-1 2zM33 26h2v2h-2zM33 30h2v1h-2zM33 33h2v2h-2z" fill="#ff6b08"/></svg>