<svg xmlns="http://www.w3.org/2000/svg" viewBox="0 0 67 83.8" width="43"><path d="M61 2H30c-2 0-4 1-4 3v13L3 28a1 1 0 000 1l3 2v19c-2 0-3 1-3 3v2l1 1h5l1-1v-2c0-2-1-3-3-3V32l3 1v9c0 3 8 5 16 5v15l1 2 3 1h31c2 0 3-1 3-3V5c0-2-1-3-3-3zM9 53v1H5v-1a2 2 0 114 0zm52 11H30a2 2 0 01-2-2v-5h35v5l-2 2zm2-9H28v-8c4 0 16-1 16-5v-9l7-4a1 1 0 000-1L28 18v-6h35v43zM27 37c-4 0-12 1-16 3l1-7c2-2 8-3 15-3 3 0 15 1 15 4v6c-3-2-11-3-15-3zm1-32l2-2h31l2 2v5H28V5zm-1 15l22 9-6 3c-3-3-12-3-16-3s-14 0-17 3l-5-3 22-9zM11 42c0-1 6-3 16-3s15 2 15 3-5 3-15 3-16-2-16-3z" fill="#ff6b08"/><path d="M45 58a2 2 0 100 5 2 2 0 000-5zm0 3a1 1 0 110-2 1 1 0 010 2zM42 6h6v2h-6z" fill="#ff6b08"/></svg>