<svg xmlns="http://www.w3.org/2000/svg" viewBox="0 0 512 512" width="53" height="53"><path d="M493 89h-22v16h22c2 0 3 1 3 3v304c0 2-1 3-3 3H283c-3 0-6 2-7 6-3 9-11 15-20 15s-17-6-20-15c-1-4-4-6-7-6H19c-2 0-3-1-3-3V108c0-2 1-3 3-3h22V89H19C8 89 0 98 0 108v304c0 11 8 19 19 19h204c6 13 19 21 33 21s27-8 33-21h204c11 0 19-8 19-19V108c0-10-8-19-19-19z" fill="#ff6b08"/><path d="M471 60H281c-18 0-33 16-33 34v321c0 4 4 8 8 8s8-3 8-7c1-9 9-16 17-16h190c4 0 8-3 8-8V68c0-4-4-8-8-8zm-8 324H281c-6 0-12 2-17 5V94c0-10 8-18 17-18h182v308z" fill="#ff6b08"/><path d="M231 60H41c-4 0-8 4-8 8v324c0 5 4 8 8 8h190c8 0 15 7 17 16 0 4 4 7 8 7s8-4 8-8V94c0-18-15-34-33-34zm17 329c-5-3-11-5-17-5H49V76h182c9 0 17 8 17 18v295zM283 115h161v16H283zM283 158h161v16H283zM283 201h161v16H283zM283 245h161v16H283zM283 288h161v16H283zM283 331h161v16H283z" fill="#ff6b08"/><path d="M68 115h161v16H68zM68 158h161v16H68zM68 201h161v16H68zM68 245h161v16H68zM68 288h161v16H68zM68 331h161v16H68z" fill="#ff6b08"/></svg>